<svg width="156" height="24" viewBox="0 0 156 24" fill="none" xmlns="http://www.w3.org/2000/svg">
<mask id="mask0_6631_21000" style="mask-type:alpha" maskUnits="userSpaceOnUse" x="0" y="0" width="24" height="24">
<circle cx="12" cy="12" r="11.6863" fill="white"/>
<circle cx="12" cy="12" r="11.6863" fill="url(#paint0_linear_6631_21000)"/>
<circle cx="12" cy="12" r="11.6863" stroke="white" stroke-width="0.627319"/>
</mask>
<g mask="url(#mask0_6631_21000)">
<g filter="url(#filter0_d_6631_21000)">
<path fill-rule="evenodd" clip-rule="evenodd" d="M-6.93681 31.7747C-0.411158 38.3004 10.169 38.3004 16.6947 31.7748C23.2203 25.2491 23.2203 14.6689 16.6947 8.14327C10.169 1.61761 -0.41116 1.61761 -6.93681 8.14326C-13.4625 14.6689 -13.4625 25.2491 -6.93681 31.7747ZM-4.66868 29.5065C0.22556 34.4007 8.16069 34.4007 13.0549 29.5065C17.9492 24.6122 17.9492 16.6771 13.0549 11.7829C8.16069 6.88863 0.225556 6.88863 -4.66868 11.7829C-9.56292 16.6771 -9.56292 24.6122 -4.66868 29.5065Z" fill="white"/>
<path fill-rule="evenodd" clip-rule="evenodd" d="M-6.93681 31.7747C-0.411158 38.3004 10.169 38.3004 16.6947 31.7748C23.2203 25.2491 23.2203 14.6689 16.6947 8.14327C10.169 1.61761 -0.41116 1.61761 -6.93681 8.14326C-13.4625 14.6689 -13.4625 25.2491 -6.93681 31.7747ZM-4.66868 29.5065C0.22556 34.4007 8.16069 34.4007 13.0549 29.5065C17.9492 24.6122 17.9492 16.6771 13.0549 11.7829C8.16069 6.88863 0.225556 6.88863 -4.66868 11.7829C-9.56292 16.6771 -9.56292 24.6122 -4.66868 29.5065Z" fill="#FFC271"/>
<path fill-rule="evenodd" clip-rule="evenodd" d="M-6.93681 31.7747C-0.411158 38.3004 10.169 38.3004 16.6947 31.7748C23.2203 25.2491 23.2203 14.6689 16.6947 8.14327C10.169 1.61761 -0.41116 1.61761 -6.93681 8.14326C-13.4625 14.6689 -13.4625 25.2491 -6.93681 31.7747ZM-4.66868 29.5065C0.22556 34.4007 8.16069 34.4007 13.0549 29.5065C17.9492 24.6122 17.9492 16.6771 13.0549 11.7829C8.16069 6.88863 0.225556 6.88863 -4.66868 11.7829C-9.56292 16.6771 -9.56292 24.6122 -4.66868 29.5065Z" fill="url(#paint1_linear_6631_21000)"/>
</g>
<g filter="url(#filter1_d_6631_21000)">
<ellipse cx="4.22071" cy="20.6181" rx="12.5325" ry="12.5325" transform="rotate(45 4.22071 20.6181)" fill="white"/>
<ellipse cx="4.22071" cy="20.6181" rx="12.5325" ry="12.5325" transform="rotate(45 4.22071 20.6181)" fill="#FF8F6F"/>
<ellipse cx="4.22071" cy="20.6181" rx="12.5325" ry="12.5325" transform="rotate(45 4.22071 20.6181)" fill="url(#paint2_linear_6631_21000)"/>
</g>
<g filter="url(#filter2_d_6631_21000)">
<ellipse cx="3.50781" cy="21.3304" rx="8.35499" ry="8.35499" transform="rotate(45 3.50781 21.3304)" fill="white"/>
<ellipse cx="3.50781" cy="21.3304" rx="8.35499" ry="8.35499" transform="rotate(45 3.50781 21.3304)" fill="url(#paint3_linear_6631_21000)"/>
</g>
<path fill-rule="evenodd" clip-rule="evenodd" d="M12.0005 24C18.6279 24 24.0005 18.6274 24.0005 12C24.0005 5.37258 18.6279 0 12.0005 0C5.37307 0 0.000488281 5.37258 0.000488281 12C0.000488281 18.6274 5.37307 24 12.0005 24ZM12.0003 22.875C18.0064 22.875 22.8753 18.0061 22.8753 12C22.8753 5.9939 18.0064 1.125 12.0003 1.125C5.99421 1.125 1.12531 5.9939 1.12531 12C1.12531 18.0061 5.99421 22.875 12.0003 22.875Z" fill="white"/>
<path fill-rule="evenodd" clip-rule="evenodd" d="M12.0005 24C18.6279 24 24.0005 18.6274 24.0005 12C24.0005 5.37258 18.6279 0 12.0005 0C5.37307 0 0.000488281 5.37258 0.000488281 12C0.000488281 18.6274 5.37307 24 12.0005 24ZM12.0003 22.875C18.0064 22.875 22.8753 18.0061 22.8753 12C22.8753 5.9939 18.0064 1.125 12.0003 1.125C5.99421 1.125 1.12531 5.9939 1.12531 12C1.12531 18.0061 5.99421 22.875 12.0003 22.875Z" fill="#FF5F6D"/>
<path fill-rule="evenodd" clip-rule="evenodd" d="M12.0005 24C18.6279 24 24.0005 18.6274 24.0005 12C24.0005 5.37258 18.6279 0 12.0005 0C5.37307 0 0.000488281 5.37258 0.000488281 12C0.000488281 18.6274 5.37307 24 12.0005 24ZM12.0003 22.875C18.0064 22.875 22.8753 18.0061 22.8753 12C22.8753 5.9939 18.0064 1.125 12.0003 1.125C5.99421 1.125 1.12531 5.9939 1.12531 12C1.12531 18.0061 5.99421 22.875 12.0003 22.875Z" fill="url(#paint4_linear_6631_21000)"/>
</g>
<path d="M34.1895 17.9506C33.5194 17.9506 32.857 17.8649 32.2025 17.6934C31.5636 17.522 30.9636 17.2805 30.4026 16.9688C29.8571 16.6415 29.3896 16.2675 29 15.8467L31.0337 13.7897C31.4077 14.1948 31.8519 14.5143 32.3661 14.7481C32.8804 14.9662 33.4414 15.0753 34.0492 15.0753C34.47 15.0753 34.7894 15.013 35.0076 14.8883C35.2414 14.7637 35.3583 14.5922 35.3583 14.3741C35.3583 14.0935 35.218 13.8832 34.9375 13.7429C34.6726 13.5871 34.3297 13.4546 33.909 13.3455C33.4882 13.2208 33.044 13.0884 32.5765 12.9481C32.109 12.8079 31.6649 12.6131 31.2441 12.3637C30.8233 12.1144 30.4805 11.7715 30.2156 11.3352C29.9506 10.8832 29.8182 10.3144 29.8182 9.62873C29.8182 8.89629 30.0052 8.26514 30.3792 7.73528C30.7532 7.18984 31.2831 6.76128 31.9687 6.4496C32.6544 6.13792 33.457 5.98208 34.3765 5.98208C35.3427 5.98208 36.231 6.15351 37.0413 6.49636C37.8673 6.82362 38.5374 7.31451 39.0517 7.96904L37.018 10.0261C36.6595 9.60536 36.2543 9.30926 35.8024 9.13784C35.3661 8.96641 34.9375 8.8807 34.5167 8.8807C34.1115 8.8807 33.8077 8.94304 33.6051 9.06771C33.4025 9.1768 33.3012 9.34043 33.3012 9.55861C33.3012 9.79237 33.4336 9.97937 33.6986 10.1196C33.9635 10.2599 34.3063 10.3846 34.7271 10.4936C35.1479 10.6027 35.592 10.7352 36.0595 10.891C36.5271 11.0469 36.9712 11.2573 37.392 11.5222C37.8127 11.7871 38.1556 12.1455 38.4205 12.5975C38.6854 13.0338 38.8179 13.6104 38.8179 14.3273C38.8179 15.4338 38.3971 16.3143 37.5556 16.9688C36.7297 17.6233 35.6076 17.9506 34.1895 17.9506Z" fill="white"/>
<path d="M46.2283 17.9272C45.0595 17.9272 43.9998 17.6701 43.0491 17.1558C42.1141 16.6259 41.3739 15.9091 40.8284 15.0052C40.283 14.1013 40.0103 13.0884 40.0103 11.9663C40.0103 10.8443 40.283 9.83912 40.8284 8.95083C41.3739 8.06254 42.1141 7.36127 43.0491 6.84699C43.9842 6.31714 45.0439 6.05221 46.2283 6.05221C47.4127 6.05221 48.4724 6.30935 49.4074 6.82362C50.3424 7.33789 51.0827 8.04696 51.6281 8.95083C52.1736 9.83912 52.4463 10.8443 52.4463 11.9663C52.4463 13.0884 52.1736 14.1013 51.6281 15.0052C51.0827 15.9091 50.3424 16.6259 49.4074 17.1558C48.4724 17.6701 47.4127 17.9272 46.2283 17.9272ZM46.2283 14.6779C46.7425 14.6779 47.1945 14.5689 47.5841 14.3507C47.9737 14.1169 48.2698 13.7974 48.4724 13.3923C48.6905 12.9715 48.7996 12.4962 48.7996 11.9663C48.7996 11.4365 48.6905 10.9767 48.4724 10.5871C48.2542 10.182 47.9503 9.87029 47.5607 9.65211C47.1867 9.41835 46.7425 9.30147 46.2283 9.30147C45.7296 9.30147 45.2854 9.41835 44.8958 9.65211C44.5062 9.87029 44.2024 10.182 43.9842 10.5871C43.766 10.9923 43.6569 11.4599 43.6569 11.9897C43.6569 12.504 43.766 12.9715 43.9842 13.3923C44.2024 13.7974 44.5062 14.1169 44.8958 14.3507C45.2854 14.5689 45.7296 14.6779 46.2283 14.6779Z" fill="white"/>
<path d="M59.2761 17.9272C58.232 17.9272 57.3047 17.7168 56.4943 17.2961C55.6996 16.8597 55.0762 16.2675 54.6243 15.5195C54.1723 14.7559 53.9464 13.8832 53.9464 12.9014V6.21004H57.5229V12.8546C57.5229 13.2442 57.5852 13.5793 57.7099 13.8598C57.8501 14.1403 58.0527 14.3585 58.3177 14.5143C58.5826 14.6701 58.9021 14.7481 59.2761 14.7481C59.8059 14.7481 60.2267 14.5844 60.5384 14.2572C60.8501 13.9143 61.0059 13.4468 61.0059 12.8546V6.21004H64.5824V12.878C64.5824 13.8754 64.3565 14.7559 63.9045 15.5195C63.4526 16.2675 62.8292 16.8597 62.0344 17.2961C61.2397 17.7168 60.3202 17.9272 59.2761 17.9272Z" fill="white"/>
<path d="M74.3317 17.9583V11.1949C74.3317 10.6027 74.1447 10.1274 73.7706 9.76899C73.4122 9.39497 72.9525 9.20797 72.3915 9.20797C72.0019 9.20797 71.659 9.29368 71.3629 9.4651C71.0668 9.62094 70.8331 9.8547 70.6616 10.1664C70.4902 10.4625 70.4045 10.8053 70.4045 11.1949L69.0253 10.517C69.0253 9.62873 69.2201 8.84953 69.6097 8.17942C69.9993 7.50931 70.537 6.99504 71.2227 6.63661C71.9239 6.26259 72.7109 6.07559 73.5836 6.07559C74.4252 6.07559 75.1654 6.27818 75.8043 6.68336C76.4589 7.07296 76.9731 7.59503 77.3472 8.24955C77.7212 8.90408 77.9082 9.62094 77.9082 10.4001V17.9583H74.3317ZM66.828 17.9583V6.21004H70.4045V17.9583H66.828Z" fill="white"/>
<path d="M85.0441 17.9038C83.9688 17.9038 83.0104 17.6467 82.1688 17.1324C81.3429 16.6181 80.6883 15.9169 80.2052 15.0286C79.7377 14.1403 79.504 13.1273 79.504 11.9897C79.504 10.8521 79.7377 9.83912 80.2052 8.95083C80.6883 8.06254 81.3429 7.36127 82.1688 6.84699C83.0104 6.33272 83.9688 6.07559 85.0441 6.07559C85.8233 6.07559 86.5245 6.22364 87.1479 6.51973C87.7868 6.81583 88.3089 7.2288 88.7141 7.75866C89.1349 8.27293 89.3686 8.86512 89.4154 9.53523V14.3273C89.3686 14.9974 89.1427 15.6052 88.7375 16.1506C88.3323 16.6805 87.8102 17.109 87.1713 17.4363C86.5323 17.748 85.8233 17.9038 85.0441 17.9038ZM85.6752 14.6779C86.1895 14.6779 86.6336 14.5689 87.0076 14.3507C87.3817 14.1169 87.6778 13.7974 87.8959 13.3923C88.1141 12.9871 88.2232 12.5196 88.2232 11.9897C88.2232 11.4599 88.1141 11.0001 87.8959 10.6105C87.6933 10.2053 87.3972 9.88587 87.0076 9.65211C86.6336 9.41835 86.1973 9.30147 85.6986 9.30147C85.1999 9.30147 84.7558 9.41835 84.3662 9.65211C83.9921 9.88587 83.6883 10.2053 83.4545 10.6105C83.2363 11.0157 83.1272 11.4754 83.1272 11.9897C83.1272 12.504 83.2363 12.9637 83.4545 13.3689C83.6727 13.7741 83.9766 14.0935 84.3662 14.3273C84.7558 14.5611 85.1921 14.6779 85.6752 14.6779ZM91.5893 17.9583H88.0829V14.6078L88.6206 11.8495L88.0128 9.09109V1.51074H91.5893V17.9583Z" fill="white"/>
<path d="M98.2451 17.9506C97.575 17.9506 96.9127 17.8649 96.2581 17.6934C95.6192 17.522 95.0192 17.2805 94.4582 16.9688C93.9128 16.6415 93.4452 16.2675 93.0556 15.8467L95.0893 13.7897C95.4634 14.1948 95.9075 14.5143 96.4218 14.7481C96.936 14.9662 97.4971 15.0753 98.1048 15.0753C98.5256 15.0753 98.8451 15.013 99.0633 14.8883C99.297 14.7637 99.4139 14.5922 99.4139 14.3741C99.4139 14.0935 99.2736 13.8832 98.9931 13.7429C98.7282 13.5871 98.3854 13.4546 97.9646 13.3455C97.5438 13.2208 97.0997 13.0884 96.6322 12.9481C96.1646 12.8079 95.7205 12.6131 95.2997 12.3637C94.879 12.1144 94.5361 11.7715 94.2712 11.3352C94.0062 10.8832 93.8738 10.3144 93.8738 9.62873C93.8738 8.89629 94.0608 8.26514 94.4348 7.73528C94.8088 7.18984 95.3387 6.76128 96.0244 6.4496C96.7101 6.13792 97.5126 5.98208 98.4321 5.98208C99.3983 5.98208 100.287 6.15351 101.097 6.49636C101.923 6.82362 102.593 7.31451 103.107 7.96904L101.074 10.0261C100.715 9.60536 100.31 9.30926 99.858 9.13784C99.4217 8.96641 98.9931 8.8807 98.5724 8.8807C98.1672 8.8807 97.8633 8.94304 97.6607 9.06771C97.4581 9.1768 97.3568 9.34043 97.3568 9.55861C97.3568 9.79237 97.4893 9.97937 97.7542 10.1196C98.0191 10.2599 98.362 10.3846 98.7827 10.4936C99.2035 10.6027 99.6477 10.7352 100.115 10.891C100.583 11.0469 101.027 11.2573 101.448 11.5222C101.868 11.7871 102.211 12.1455 102.476 12.5975C102.741 13.0338 102.874 13.6104 102.874 14.3273C102.874 15.4338 102.453 16.3143 101.611 16.9688C100.785 17.6233 99.6632 17.9506 98.2451 17.9506Z" fill="white"/>
<path d="M110.307 17.9272C109.138 17.9272 108.079 17.6701 107.128 17.1558C106.178 16.6415 105.429 15.9325 104.884 15.0286C104.339 14.1247 104.066 13.1118 104.066 11.9897C104.066 10.8521 104.339 9.83912 104.884 8.95083C105.445 8.04696 106.201 7.33789 107.152 6.82362C108.102 6.30935 109.17 6.05221 110.354 6.05221C111.242 6.05221 112.053 6.20805 112.785 6.51973C113.533 6.81583 114.195 7.26776 114.772 7.87554L112.481 10.1664C112.216 9.87029 111.905 9.65211 111.546 9.51185C111.203 9.3716 110.806 9.30147 110.354 9.30147C109.84 9.30147 109.38 9.41835 108.975 9.65211C108.585 9.87029 108.274 10.182 108.04 10.5871C107.822 10.9767 107.713 11.4365 107.713 11.9663C107.713 12.4962 107.822 12.9637 108.04 13.3689C108.274 13.7741 108.593 14.0935 108.998 14.3273C109.403 14.5611 109.855 14.6779 110.354 14.6779C110.822 14.6779 111.235 14.6 111.593 14.4442C111.967 14.2728 112.286 14.039 112.551 13.7429L114.819 16.0337C114.227 16.6571 113.557 17.1324 112.809 17.4597C112.06 17.7714 111.227 17.9272 110.307 17.9272Z" fill="white"/>
<path d="M120.882 17.9038C119.838 17.9038 118.903 17.6467 118.077 17.1324C117.267 16.6181 116.62 15.9169 116.137 15.0286C115.669 14.1403 115.435 13.1273 115.435 11.9897C115.435 10.8521 115.669 9.83912 116.137 8.95083C116.62 8.06254 117.267 7.36127 118.077 6.84699C118.903 6.33272 119.838 6.07559 120.882 6.07559C121.646 6.07559 122.331 6.22364 122.939 6.51973C123.562 6.81583 124.069 7.2288 124.458 7.75866C124.848 8.27293 125.066 8.86512 125.113 9.53523V14.4442C125.066 15.1143 124.848 15.7143 124.458 16.2441C124.084 16.7584 123.586 17.1636 122.962 17.4597C122.339 17.7558 121.646 17.9038 120.882 17.9038ZM121.607 14.6779C122.37 14.6779 122.986 14.4286 123.453 13.9299C123.921 13.4156 124.155 12.7689 124.155 11.9897C124.155 11.4599 124.046 10.9923 123.827 10.5871C123.625 10.182 123.329 9.87029 122.939 9.65211C122.565 9.41835 122.129 9.30147 121.63 9.30147C121.131 9.30147 120.687 9.41835 120.298 9.65211C119.924 9.87029 119.62 10.182 119.386 10.5871C119.168 10.9923 119.059 11.4599 119.059 11.9897C119.059 12.504 119.168 12.9637 119.386 13.3689C119.604 13.7741 119.908 14.0935 120.298 14.3273C120.687 14.5611 121.124 14.6779 121.607 14.6779ZM124.014 17.9583V14.6078L124.552 11.8495L124.014 9.09109V6.33044H127.521V17.9583H124.014Z" fill="white"/>
<path d="M136.584 17.9038C135.821 17.9038 135.119 17.7558 134.48 17.4597C133.841 17.1636 133.319 16.7584 132.914 16.2441C132.509 15.7143 132.275 15.1143 132.213 14.4442V9.65211C132.275 8.982 132.509 8.37422 132.914 7.82878C133.319 7.28335 133.841 6.85479 134.48 6.54311C135.119 6.23143 135.821 6.07559 136.584 6.07559C137.66 6.07559 138.61 6.33272 139.436 6.84699C140.278 7.36127 140.932 8.06254 141.4 8.95083C141.883 9.83912 142.124 10.8521 142.124 11.9897C142.124 13.1273 141.883 14.1403 141.4 15.0286C140.932 15.9169 140.278 16.6181 139.436 17.1324C138.61 17.6467 137.66 17.9038 136.584 17.9038ZM135.93 14.6779C136.444 14.6779 136.888 14.5611 137.262 14.3273C137.652 14.0935 137.956 13.7741 138.174 13.3689C138.392 12.9637 138.501 12.504 138.501 11.9897C138.501 11.4599 138.392 10.9923 138.174 10.5871C137.956 10.182 137.652 9.87029 137.262 9.65211C136.888 9.41835 136.452 9.30147 135.953 9.30147C135.454 9.30147 135.01 9.41835 134.621 9.65211C134.247 9.87029 133.951 10.182 133.732 10.5871C133.514 10.9923 133.405 11.4599 133.405 11.9897C133.405 12.504 133.506 12.9637 133.709 13.3689C133.927 13.7741 134.231 14.0935 134.621 14.3273C135.01 14.5611 135.447 14.6779 135.93 14.6779ZM130.039 22.4898V6.21004H133.615V9.23134L133.031 11.9897L133.569 14.7481V22.4898H130.039Z" fill="white"/>
<path d="M149.552 17.9272C148.32 17.9272 147.222 17.6779 146.255 17.1792C145.305 16.6649 144.557 15.9558 144.011 15.052C143.466 14.1481 143.193 13.1273 143.193 11.9897C143.193 10.8521 143.458 9.83912 143.988 8.95083C144.533 8.04696 145.266 7.33789 146.185 6.82362C147.105 6.30935 148.141 6.05221 149.294 6.05221C150.416 6.05221 151.406 6.29376 152.263 6.77687C153.12 7.25997 153.79 7.93008 154.273 8.7872C154.772 9.64432 155.021 10.6261 155.021 11.7326C155.021 11.9352 155.006 12.1533 154.975 12.3871C154.959 12.6053 154.92 12.8624 154.858 13.1585L145.063 13.1819V10.7274L153.338 10.704L151.796 11.7326C151.78 11.078 151.679 10.5404 151.492 10.1196C151.305 9.68328 151.024 9.35601 150.65 9.13784C150.292 8.90408 149.848 8.7872 149.318 8.7872C148.757 8.7872 148.266 8.91966 147.845 9.18459C147.44 9.43393 147.12 9.79237 146.887 10.2599C146.668 10.7274 146.559 11.2962 146.559 11.9663C146.559 12.6364 146.676 13.213 146.91 13.6962C147.159 14.1637 147.502 14.5299 147.939 14.7948C148.39 15.0442 148.92 15.1688 149.528 15.1688C150.089 15.1688 150.596 15.0753 151.048 14.8883C151.499 14.6857 151.897 14.3896 152.24 14L154.203 15.9636C153.642 16.6181 152.964 17.109 152.17 17.4363C151.375 17.7636 150.502 17.9272 149.552 17.9272Z" fill="white"/>
<defs>
<filter id="filter0_d_6631_21000" x="-13.4674" y="2.43084" width="36.6926" height="36.6926" filterUnits="userSpaceOnUse" color-interpolation-filters="sRGB">
<feFlood flood-opacity="0" result="BackgroundImageFix"/>
<feColorMatrix in="SourceAlpha" type="matrix" values="0 0 0 0 0 0 0 0 0 0 0 0 0 0 0 0 0 0 127 0" result="hardAlpha"/>
<feOffset dy="0.818182"/>
<feGaussianBlur stdDeviation="0.818182"/>
<feComposite in2="hardAlpha" operator="out"/>
<feColorMatrix type="matrix" values="0 0 0 0 0 0 0 0 0 0 0 0 0 0 0 0 0 0 0.24 0"/>
<feBlend mode="normal" in2="BackgroundImageFix" result="effect1_dropShadow_6631_21000"/>
<feBlend mode="normal" in="SourceGraphic" in2="effect1_dropShadow_6631_21000" result="shape"/>
</filter>
<filter id="filter1_d_6631_21000" x="-9.94838" y="7.26776" width="28.3382" height="28.3372" filterUnits="userSpaceOnUse" color-interpolation-filters="sRGB">
<feFlood flood-opacity="0" result="BackgroundImageFix"/>
<feColorMatrix in="SourceAlpha" type="matrix" values="0 0 0 0 0 0 0 0 0 0 0 0 0 0 0 0 0 0 127 0" result="hardAlpha"/>
<feOffset dy="0.818182"/>
<feGaussianBlur stdDeviation="0.818182"/>
<feComposite in2="hardAlpha" operator="out"/>
<feColorMatrix type="matrix" values="0 0 0 0 0 0 0 0 0 0 0 0 0 0 0 0 0 0 0.24 0"/>
<feBlend mode="normal" in2="BackgroundImageFix" result="effect1_dropShadow_6631_21000"/>
<feBlend mode="normal" in="SourceGraphic" in2="effect1_dropShadow_6631_21000" result="shape"/>
</filter>
<filter id="filter2_d_6631_21000" x="-6.48353" y="12.1574" width="19.9827" height="19.9827" filterUnits="userSpaceOnUse" color-interpolation-filters="sRGB">
<feFlood flood-opacity="0" result="BackgroundImageFix"/>
<feColorMatrix in="SourceAlpha" type="matrix" values="0 0 0 0 0 0 0 0 0 0 0 0 0 0 0 0 0 0 127 0" result="hardAlpha"/>
<feOffset dy="0.818182"/>
<feGaussianBlur stdDeviation="0.818182"/>
<feComposite in2="hardAlpha" operator="out"/>
<feColorMatrix type="matrix" values="0 0 0 0 0 0 0 0 0 0 0 0 0 0 0 0 0 0 0.24 0"/>
<feBlend mode="normal" in2="BackgroundImageFix" result="effect1_dropShadow_6631_21000"/>
<feBlend mode="normal" in="SourceGraphic" in2="effect1_dropShadow_6631_21000" result="shape"/>
</filter>
<linearGradient id="paint0_linear_6631_21000" x1="19.9145" y1="2.94473" x2="11.9971" y2="13.2859" gradientUnits="userSpaceOnUse">
<stop stop-color="#FB9284"/>
<stop offset="1" stop-color="#F0526B"/>
</linearGradient>
<linearGradient id="paint1_linear_6631_21000" x1="16.3124" y1="7.61206" x2="3.3374" y2="20.5871" gradientUnits="userSpaceOnUse">
<stop stop-color="#FFB65B"/>
<stop offset="1" stop-color="#FF5A82"/>
</linearGradient>
<linearGradient id="paint2_linear_6631_21000" x1="2.8737" y1="8.05736" x2="2.87371" y2="20.9444" gradientUnits="userSpaceOnUse">
<stop stop-color="#FFB65B"/>
<stop offset="1" stop-color="#FF5A82"/>
</linearGradient>
<linearGradient id="paint3_linear_6631_21000" x1="2.60981" y1="12.9839" x2="2.60981" y2="20.8859" gradientUnits="userSpaceOnUse">
<stop stop-color="#FFB65B"/>
<stop offset="1" stop-color="#FF5A82"/>
</linearGradient>
<linearGradient id="paint4_linear_6631_21000" x1="20.1755" y1="2.94375" x2="0.300488" y2="22.8187" gradientUnits="userSpaceOnUse">
<stop stop-color="#FFB65B"/>
<stop offset="1" stop-color="#FF5A82"/>
</linearGradient>
</defs>
</svg>
